<?xml version="1.0" encoding="UTF-8"?>
<svg id="Layer_2" data-name="Layer 2" xmlns="http://www.w3.org/2000/svg" viewBox="0 0 178.86 48">
  <defs>
    <style>
      .cls-1 {
        fill: #2b58a4;
      }

      .cls-1, .cls-2, .cls-3, .cls-4 {
        stroke-width: 0px;
      }

      .cls-1, .cls-3 {
        fill-rule: evenodd;
      }

      .cls-2 {
        fill: #d8d8d8;
      }

      .cls-3, .cls-4 {
        fill: #fff;
      }
    </style>
  </defs>
  <g id="Layer_1-2" data-name="Layer 1">
    <g>
      <g>
        <g>
          <path class="cls-4" d="M53.46,25.97c-.21,0-.31-.11-.31-.34V9.28c0-.22.1-.34.31-.34h4.21c.17,0,.29.08.36.23l2.42,6.86c.17.43.34.92.51,1.46.16.54.33,1.06.48,1.57.16.51.29.96.39,1.34h.05c-.03-.45-.07-1.01-.12-1.69-.04-.68-.08-1.35-.12-2.03-.04-.68-.05-1.24-.05-1.69v-5.72c0-.22.1-.34.31-.34h3.2c.23,0,.34.11.34.34v16.35c0,.23-.11.34-.34.34h-4.19c-.17,0-.29-.08-.36-.23l-2.42-6.73c-.26-.69-.5-1.43-.73-2.22-.23-.79-.43-1.5-.6-2.12h-.08c.05.49.1,1.07.13,1.75.03.69.06,1.36.09,2.03.03.67.04,1.25.04,1.75v5.43c0,.23-.12.34-.36.34h-3.17Z"/>
          <path class="cls-4" d="M80.6,25.54l-2.66-3.16c.11-.23.21-.48.31-.73.54-1.47.82-3.21.82-5.24,0-.24-.13-.36-.37-.36h-2.52c-.24,0-.36.12-.36.36,0,1.2-.09,2.25-.26,3.15l-2.06-2.45c.43-.43.8-.87,1.11-1.31.4-.58.72-1.17.93-1.77.22-.6.33-1.21.33-1.83,0-1.11-.35-1.97-1.03-2.56-.68-.6-1.68-.9-2.98-.9-1.38,0-2.43.32-3.13.97s-1.05,1.63-1.05,2.93c0,.87.15,1.69.45,2.46.25.62.63,1.28,1.14,1.96-.22.22-.41.44-.59.64-.58.66-.99,1.32-1.22,1.97-.24.65-.35,1.4-.35,2.25,0,1.34.42,2.38,1.27,3.13.85.76,2.11,1.14,3.77,1.14,1.46,0,2.7-.39,3.73-1.17.01-.01.03-.02.04-.03l.68.81c.08.12.22.18.41.18h3.41c.14,0,.22-.05.26-.13.03-.09.01-.19-.08-.31ZM71.14,11.79c.13-.18.36-.27.67-.27s.5.09.63.27c.12.19.18.45.18.8s-.06.67-.18.97c-.13.31-.31.61-.55.91-.08.11-.17.21-.27.33-.15-.24-.27-.48-.37-.72-.21-.53-.32-1.01-.32-1.44,0-.38.07-.66.21-.85ZM72.28,23.35c-.59,0-1.04-.15-1.35-.44-.31-.29-.47-.69-.47-1.2,0-.41.06-.8.19-1.17.13-.36.32-.72.58-1.08,0-.01.01-.01.01-.02l2.79,3.31c-.48.4-1.06.6-1.75.6Z"/>
          <path class="cls-4" d="M84.63,25.97c-.23,0-.34-.11-.34-.34v-13.13h-3.3c-.21,0-.31-.11-.31-.34v-2.89c0-.22.1-.34.31-.34h10.66c.21,0,.31.11.31.34v2.89c0,.23-.1.34-.31.34h-3.3v13.13c0,.23-.1.34-.31.34h-3.41Z"/>
          <path class="cls-4" d="M102.91,26.18c-1.99,0-3.53-.52-4.6-1.55-1.08-1.03-1.61-2.66-1.61-4.88v-4.58c0-2.15.54-3.76,1.61-4.84,1.07-1.08,2.61-1.61,4.6-1.61,1.4,0,2.59.26,3.56.78.97.52,1.68,1.24,2.12,2.17.44.93.58,2.02.43,3.29-.02.24-.12.36-.31.36h-3.41c-.23,0-.33-.12-.31-.36.05-.85-.08-1.5-.4-1.96s-.87-.69-1.65-.69-1.3.23-1.65.68c-.36.45-.53,1.21-.53,2.29v4.29c0,1.11.18,1.89.55,2.34.36.45.91.68,1.64.68.81,0,1.37-.25,1.66-.74.29-.49.43-1.13.42-1.91-.02-.24.08-.36.29-.36h3.43c.19,0,.29.11.31.34.19,1.91-.24,3.43-1.3,4.56-1.06,1.14-2.67,1.7-4.84,1.7Z"/>
          <path class="cls-4" d="M111.15,25.97c-.21,0-.31-.11-.31-.34V9.28c0-.22.1-.34.31-.34h9.18c.21,0,.31.11.31.34v2.89c0,.23-.1.34-.31.34h-5.43v3.2h4.94c.21,0,.31.11.31.34v2.68c0,.24-.1.36-.31.36h-4.94v3.33h5.43c.21,0,.31.11.31.34v2.89c0,.23-.1.34-.31.34h-9.18Z"/>
          <path class="cls-4" d="M122.54,25.97c-.23,0-.34-.11-.34-.34l.26-16.35c0-.22.11-.34.34-.34h3.95c.19,0,.32.09.39.26l2.94,8.09,2.91-8.09c.07-.17.19-.26.36-.26h3.95c.21,0,.31.11.31.34l.29,16.35c0,.23-.11.34-.34.34h-3.33c-.21,0-.31-.11-.31-.34l-.1-5.62c-.02-.95,0-1.82.04-2.6.04-.78.1-1.51.17-2.18h-.08c-.19.61-.41,1.23-.65,1.87-.24.64-.49,1.27-.75,1.87l-2.11,4.99c-.07.16-.17.23-.31.23h-.16c-.14,0-.24-.08-.31-.23l-2.11-5.02c-.26-.59-.51-1.2-.74-1.85-.23-.64-.46-1.26-.66-1.87h-.05c.05.66.1,1.38.14,2.17.04.79.06,1.66.04,2.61l-.08,5.62c0,.23-.11.34-.34.34h-3.33Z"/>
          <path class="cls-4" d="M139.98,25.97c-.21,0-.31-.11-.31-.34V9.28c0-.22.1-.34.31-.34h9.18c.21,0,.31.11.31.34v2.89c0,.23-.1.34-.31.34h-5.43v3.2h4.94c.21,0,.31.11.31.34v2.68c0,.24-.1.36-.31.36h-4.94v3.33h5.43c.21,0,.31.11.31.34v2.89c0,.23-.1.34-.31.34h-9.18Z"/>
          <path class="cls-4" d="M151.61,25.97c-.21,0-.31-.11-.31-.34V9.28c0-.22.1-.34.31-.34h4.21c.17,0,.29.08.36.23l2.42,6.86c.17.43.34.92.51,1.46.16.54.33,1.06.48,1.57.16.51.29.96.39,1.34h.05c-.03-.45-.07-1.01-.12-1.69-.04-.68-.08-1.35-.12-2.03-.04-.68-.05-1.24-.05-1.69v-5.72c0-.22.1-.34.31-.34h3.2c.23,0,.34.11.34.34v16.35c0,.23-.11.34-.34.34h-4.19c-.17,0-.29-.08-.36-.23l-2.42-6.73c-.26-.69-.5-1.43-.73-2.22-.23-.79-.43-1.5-.6-2.12h-.08c.05.49.1,1.07.13,1.75.03.69.06,1.36.09,2.03.03.67.04,1.25.04,1.75v5.43c0,.23-.12.34-.36.34h-3.17Z"/>
          <path class="cls-4" d="M168.82,25.97c-.23,0-.34-.11-.34-.34v-13.13h-3.3c-.21,0-.31-.11-.31-.34v-2.89c0-.22.1-.34.31-.34h10.66c.21,0,.31.11.31.34v2.89c0,.23-.1.34-.31.34h-3.3v13.13c0,.23-.1.34-.31.34h-3.41Z"/>
        </g>
        <g>
          <path class="cls-2" d="M56.78,40.48l-.43-.99h-2.07l-.43.99h-.78l1.92-4.25h.63l1.92,4.25h-.77ZM54.54,38.89h1.55l-.78-1.81-.78,1.81Z"/>
          <path class="cls-2" d="M60.81,40.09c-.3-.3-.45-.74-.45-1.32v-2.53h.76v2.57c0,.37.09.64.26.83.17.19.43.28.76.28s.58-.09.75-.28c.17-.19.26-.46.26-.83v-2.57h.76v2.53c0,.57-.15,1.01-.45,1.32-.3.3-.74.45-1.32.45s-1.02-.15-1.33-.45Z"/>
          <path class="cls-2" d="M68.03,36.23h.73v4.25h-.58l-2.28-2.97v2.97h-.72v-4.25h.58l2.28,2.96v-2.96Z"/>
          <path class="cls-2" d="M70.05,40.48v-4.25h.78v4.25h-.78Z"/>
          <path class="cls-2" d="M73.12,40.48v-3.61h-1.39v-.64h3.55v.64h-1.39v3.61h-.78Z"/>
          <path class="cls-2" d="M79.01,40.27c-.3-.18-.54-.43-.7-.76s-.25-.72-.25-1.16.08-.83.24-1.15c.16-.33.4-.58.7-.76.31-.18.67-.26,1.08-.26s.77.09,1.08.26c.3.18.54.43.7.76.16.33.24.71.24,1.15s-.08.83-.25,1.16c-.16.33-.4.58-.7.76s-.66.26-1.07.26-.77-.09-1.08-.26ZM81,39.51c.22-.27.33-.66.33-1.16s-.11-.89-.33-1.15-.52-.4-.91-.4-.7.13-.92.4-.33.65-.33,1.15.11.89.33,1.16c.22.27.53.4.92.4s.69-.13.91-.4Z"/>
          <path class="cls-2" d="M83.26,40.48v-4.25h2.78v.62h-2.02v1.16h1.9v.62h-1.9v1.85h-.77Z"/>
          <path class="cls-2" d="M91.91,36.23h.73v4.25h-.58l-2.28-2.97v2.97h-.72v-4.25h.58l2.28,2.96v-2.96Z"/>
          <path class="cls-2" d="M96.79,36.23h.73v4.25h-.58l-2.28-2.97v2.97h-.72v-4.25h.58l2.28,2.96v-2.96Z"/>
          <path class="cls-2" d="M99.81,40.48v-3.61h-1.39v-.64h3.55v.64h-1.39v3.61h-.78Z"/>
          <path class="cls-2" d="M108.43,38.19v2.04c-.19.1-.43.17-.7.23-.28.06-.56.08-.84.08-.44,0-.82-.09-1.14-.26s-.57-.43-.74-.75-.26-.72-.26-1.17.09-.83.26-1.16c.17-.33.41-.58.73-.75s.69-.26,1.11-.26c.3,0,.58.04.84.13.26.09.48.21.65.37l-.26.56c-.2-.15-.39-.26-.58-.33-.19-.07-.4-.1-.63-.1-.44,0-.77.13-.99.39-.22.26-.33.64-.33,1.15,0,1.04.46,1.57,1.37,1.57.27,0,.55-.04.82-.11v-1.07h-.92v-.55h1.61Z"/>
          <path class="cls-2" d="M113.24,40.48h-.84l-.73-1.36c-.07-.13-.15-.22-.25-.27-.1-.05-.23-.08-.38-.08h-.59v1.71h-.77v-4.25h1.88c.48,0,.85.11,1.1.32.25.21.38.53.38.93,0,.33-.09.59-.27.8s-.44.35-.77.41c.23.06.41.22.54.48l.71,1.3ZM112.09,38.02c.14-.11.2-.28.2-.51s-.07-.4-.2-.51c-.14-.11-.35-.16-.64-.16h-1.01v1.34h1.01c.29,0,.51-.06.64-.17Z"/>
          <path class="cls-2" d="M115.02,40.27c-.3-.18-.54-.43-.7-.76s-.25-.72-.25-1.16.08-.83.24-1.15c.16-.33.4-.58.7-.76.31-.18.67-.26,1.08-.26s.77.09,1.08.26c.3.18.54.43.7.76.16.33.24.71.24,1.15s-.08.83-.25,1.16c-.16.33-.4.58-.7.76s-.66.26-1.07.26-.77-.09-1.08-.26ZM117.01,39.51c.22-.27.33-.66.33-1.16s-.11-.89-.33-1.15-.52-.4-.91-.4-.7.13-.92.4-.33.65-.33,1.15.11.89.33,1.16c.22.27.53.4.92.4s.69-.13.91-.4Z"/>
          <path class="cls-2" d="M119.7,40.09c-.3-.3-.45-.74-.45-1.32v-2.53h.76v2.57c0,.37.09.64.26.83.17.19.43.28.76.28s.58-.09.75-.28c.17-.19.26-.46.26-.83v-2.57h.76v2.53c0,.57-.15,1.01-.45,1.32-.3.3-.74.45-1.32.45s-1.02-.15-1.33-.45Z"/>
          <path class="cls-2" d="M124.07,36.23h1.86c.45,0,.81.11,1.06.34.25.23.38.55.38.96s-.13.73-.38.96-.61.34-1.06.34h-1.08v1.65h-.78v-4.25ZM125.83,38.24c.53,0,.8-.23.8-.7,0-.24-.07-.41-.2-.53-.13-.11-.33-.17-.6-.17h-.98v1.4h.98Z"/>
          <path class="cls-2" d="M131.24,40.27c-.3-.18-.54-.43-.7-.76-.16-.33-.25-.72-.25-1.16s.08-.83.24-1.15c.16-.33.4-.58.7-.76.31-.18.67-.26,1.08-.26s.77.09,1.08.26c.3.18.54.43.7.76.16.33.24.71.24,1.15s-.08.83-.25,1.16c-.16.33-.4.58-.7.76-.3.18-.66.26-1.07.26s-.77-.09-1.08-.26ZM133.23,39.51c.22-.27.33-.66.33-1.16s-.11-.89-.33-1.15-.52-.4-.91-.4-.7.13-.92.4-.33.65-.33,1.15.11.89.33,1.16c.22.27.53.4.92.4s.69-.13.91-.4Z"/>
          <path class="cls-2" d="M135.49,40.48v-4.25h2.78v.62h-2.02v1.16h1.9v.62h-1.9v1.85h-.77Z"/>
          <path class="cls-2" d="M142.12,40.27c-.31-.18-.55-.43-.72-.76-.17-.33-.25-.71-.25-1.15s.08-.82.25-1.15c.17-.33.41-.58.72-.76.31-.18.68-.27,1.09-.27.29,0,.55.04.81.13s.47.21.64.37l-.26.57c-.19-.15-.38-.26-.57-.33-.19-.07-.39-.11-.6-.11-.41,0-.73.13-.95.4-.22.26-.33.65-.33,1.15s.11.89.33,1.15c.22.27.54.4.95.4.21,0,.41-.03.6-.11.19-.07.38-.18.57-.33l.26.57c-.17.16-.39.29-.64.37s-.52.13-.81.13c-.42,0-.78-.09-1.09-.27Z"/>
          <path class="cls-2" d="M146.48,40.27c-.3-.18-.54-.43-.7-.76-.16-.33-.25-.72-.25-1.16s.08-.83.24-1.15c.16-.33.4-.58.7-.76.3-.18.66-.26,1.08-.26s.77.09,1.08.26c.3.18.54.43.7.76.16.33.24.71.24,1.15s-.08.83-.25,1.16c-.16.33-.4.58-.7.76-.3.18-.66.26-1.07.26s-.77-.09-1.08-.26ZM148.47,39.51c.22-.27.33-.66.33-1.16s-.11-.89-.33-1.15-.52-.4-.91-.4-.7.13-.92.4-.33.65-.33,1.15.11.89.33,1.16c.22.27.53.4.92.4s.69-.13.91-.4Z"/>
          <path class="cls-2" d="M154.27,36.23h.61v4.25h-.69v-2.81l-1.12,2.12h-.52l-1.13-2.09v2.78s-.68,0-.68,0v-4.25h.61l1.46,2.78,1.45-2.78Z"/>
          <path class="cls-2" d="M156.18,36.23h1.86c.45,0,.81.11,1.06.34.25.23.38.55.38.96s-.13.73-.38.96-.61.34-1.06.34h-1.08v1.65h-.78v-4.25ZM157.94,38.24c.53,0,.8-.23.8-.7,0-.24-.07-.41-.2-.53-.13-.11-.33-.17-.6-.17h-.98v1.4h.98Z"/>
          <path class="cls-2" d="M163.33,40.48l-.43-.99h-2.07l-.43.99h-.78l1.92-4.25h.63l1.92,4.25h-.77ZM161.08,38.89h1.55l-.78-1.81-.78,1.81Z"/>
          <path class="cls-2" d="M167.78,36.23h.73v4.25h-.58l-2.28-2.97v2.97h-.72v-4.25h.58l2.28,2.96v-2.96Z"/>
          <path class="cls-2" d="M169.8,40.48v-4.25h.78v4.25h-.78Z"/>
          <path class="cls-2" d="M171.87,40.48v-4.25h2.85v.62h-2.09v1.17h1.97v.61h-1.97v1.24h2.09v.61h-2.85Z"/>
          <path class="cls-2" d="M176.25,40.4c-.29-.09-.53-.21-.72-.37l.26-.57c.2.16.42.27.65.34.23.07.47.11.74.11.29,0,.52-.05.68-.15.16-.1.24-.25.24-.43,0-.16-.07-.28-.22-.37-.15-.08-.39-.16-.73-.24-.35-.08-.64-.16-.86-.26-.22-.1-.39-.23-.5-.39s-.17-.36-.17-.6.07-.47.21-.67c.14-.2.33-.35.58-.46.25-.11.54-.17.86-.17.3,0,.58.05.85.14.27.09.49.21.66.37l-.26.57c-.38-.3-.8-.45-1.25-.45-.27,0-.49.06-.65.17-.16.11-.24.26-.24.46,0,.16.07.29.21.38s.38.17.72.25c.36.08.65.17.87.27.22.1.39.22.51.38.12.15.18.35.18.58,0,.25-.07.48-.2.67-.13.19-.33.34-.59.44-.25.1-.56.15-.9.15-.33,0-.63-.04-.92-.13Z"/>
        </g>
      </g>
      <g>
        <path class="cls-3" d="M22.06.09C8.89,1.23-1.05,12.63.09,26.03c1.06,12.5,12.02,23.03,25.89,21.88,12.55-1.04,23.07-12.01,21.93-25.89C46.89,9.52,35.87-1.1,22.06.09Z"/>
        <path class="cls-1" d="M33.19,17.11c0,2.92.22,11.02-.31,12.96-.51,1.86-1.92,1.84-2.55,2.2l-.03.73h8.41v-.73c-1.44-.87-3.18.17-3.18-5.99,0-3.05-.03-6.12,0-9.17,3.1,0,4.43.37,4.48,3.68l1.18.08.24-5.87H14.26s3.1,2.09,3.1,2.09h15.82ZM25.97,32.89l2.22.02c.03-1.35-.18-8.39.12-8.98-.08-1.03.21-2.42.69-3.15.6-.93,1.43-1.02,2.44-1.38v-.75s-8.39-.01-8.39-.01l-.02.74c1.37.67,2.46.35,2.81,3.4.12,1.04.23,5.27.04,6.18-3.43-4.91-5.68-8.37-10.72-12-2.31-1.66-3.17-2.09-5.67-1.9-.27,3.15.34,12.14-.26,14.77-.5,2.17-1.74,1.92-2.62,2.46l-.03.73h8.4s0-.73,0-.73c-1.52-.89-3.17.02-3.17-5.87,0-3.01,0-6.02,0-9.04,1.3.52,3.5,2.23,4.35,3l4.49,4.77,2.41,3.24c.36.53,2.67,4.34,2.91,4.52Z"/>
      </g>
    </g>
  </g>
</svg>