<svg width="24" height="36" viewBox="0 0 24 36" fill="none" xmlns="http://www.w3.org/2000/svg">
<path d="M12 22.475C13.65 21.1417 14.8958 19.8583 15.7375 18.625C16.5792 17.3917 17 16.2333 17 15.15C17 13.65 16.5333 12.4167 15.6 11.45C14.6667 10.4833 13.4667 10 12 10C10.5333 10 9.33333 10.4833 8.4 11.45C7.46667 12.4167 7 13.65 7 15.15C7 16.2333 7.42083 17.3917 8.2625 18.625C9.10417 19.8583 10.35 21.1417 12 22.475ZM12 25C9.65 23.2667 7.89583 21.5833 6.7375 19.95C5.57917 18.3167 5 16.7167 5 15.15C5 13.0667 5.65 11.3542 6.95 10.0125C8.25 8.67083 9.93333 8 12 8C14.0667 8 15.75 8.67083 17.05 10.0125C18.35 11.3542 19 13.0667 19 15.15C19 16.7167 18.4208 18.3167 17.2625 19.95C16.1042 21.5833 14.35 23.2667 12 25ZM12 17C12.55 17 13.0208 16.8042 13.4125 16.4125C13.8042 16.0208 14 15.55 14 15C14 14.45 13.8042 13.9792 13.4125 13.5875C13.0208 13.1958 12.55 13 12 13C11.45 13 10.9792 13.1958 10.5875 13.5875C10.1958 13.9792 10 14.45 10 15C10 15.55 10.1958 16.0208 10.5875 16.4125C10.9792 16.8042 11.45 17 12 17ZM5 28V26H19V28H5Z" fill="#454745"/>
</svg>
